<svg aria-hidden="true" style="position:absolute;width:0;height:0" xmlns="http://www.w3.org/2000/svg" overflow="hidden"><defs><symbol id="icon-Add" viewBox="0 0 32 32"><path d="M15 10h2v12h-2V10z"/><path d="M10 15h12v2H10v-2z"/></symbol><symbol id="icon-Arrow_Down" viewBox="0 0 32 32"><path d="M23.65 11.65L16 19.29l-7.65-7.64-.7.7L16 20.71l8.35-8.36-.7-.7z"/></symbol><symbol id="icon-BG_Texture" viewBox="0 0 32 32"><path d="M7.892.428a.423.423 0 0 0 .407-.423v-.006H7.48v.006c0 .23.183.417.412.423h.001zm7.929 0a.418.418 0 0 0 .407-.417v-.012V0h-.819v.006c0 .23.183.417.412.423h.001zm7.929 0a.423.423 0 0 0 .412-.423v-.006h-.841V.01c0 .231.187.418.418.418h.012-.001zM.407 8.033l.001-.022a.418.418 0 0 0-.407-.418H0v.868a.418.418 0 0 0 .407-.418v-.012.001zm0 8.032v-.011a.416.416 0 0 0-.406-.417H0v.852a.412.412 0 0 0 .407-.412v-.011.001zm0 8.033v-.016A.412.412 0 0 0 0 23.67v.852a.412.412 0 0 0 .407-.412v-.011.001zM.998 0H0v1.036A1.02 1.02 0 0 0 .998.017V0v.001zm30.601 1.036V0h-.998v.022c0 .554.445 1.005.997 1.014h.001zM0 30.964V32h.998v-.017c0-.556-.444-1.007-.997-1.019H0zM4.165 3.45l-.022-.001a.428.428 0 1 0 .428.428v-.011a.417.417 0 0 0-.406-.417h-.001zm7.93 0l-.022-.001a.428.428 0 1 0 .428.428v-.016a.412.412 0 0 0-.407-.412zm7.929 0a.429.429 0 0 0-.002.852h.002a.429.429 0 0 0 .002-.852h-.002zm7.93 0h-.016a.428.428 0 1 0 .428.428v-.01a.418.418 0 0 0-.412-.418zM7.892 7.593l-.022-.001a.428.428 0 1 0 .428.428v-.006a.423.423 0 0 0-.406-.423h-.001zm7.929.868a.428.428 0 1 0 0-.856.428.428 0 1 0 0 .856zm7.929-.868a.428.428 0 1 0 0 .856.428.428 0 1 0 0-.856zm7.436.44v.006c0 .23.183.417.412.423h.001v-.868a.428.428 0 0 0-.412.428v.012-.001zM4.165 11.482l-.022-.001a.428.428 0 1 0 .428.428v-.011a.417.417 0 0 0-.406-.417h-.001zm7.93 0l-.022-.001a.428.428 0 1 0 .428.428v-.016a.412.412 0 0 0-.407-.412zm7.929 0a.429.429 0 0 0-.002.852h.002a.429.429 0 0 0 .002-.852h-.002zm7.93 0h-.016a.428.428 0 1 0 .428.428v-.01a.418.418 0 0 0-.412-.418zM7.892 15.637a.423.423 0 0 0-.412.423v.006a.412.412 0 1 0 .412-.428zm15.858 0a.418.418 0 0 0-.407.417v.012-.001.011c0 .226.182.409.407.412a.418.418 0 0 0 .412-.418v-.012a.423.423 0 0 0-.412-.423h-.001zm7.436.428v.005c0 .229.184.415.412.418v-.852a.423.423 0 0 0-.412.423v.006zm-27.021 3.46a.418.418 0 0 0-.412.418v.006a.412.412 0 1 0 .818-.002v-.004a.417.417 0 0 0-.406-.417h-.001zm7.93 0a.418.418 0 0 0-.412.418v.012c0 .23.183.417.412.423h.001a.418.418 0 0 0 .407-.418v-.022a.412.412 0 0 0-.407-.412zm7.929 0a.412.412 0 0 0-.407.412v.011-.001.011c0 .227.181.412.406.417h.001a.423.423 0 0 0 .412-.423v-.011a.418.418 0 0 0-.412-.418zm7.93 0a.418.418 0 0 0-.407.418v.006a.412.412 0 1 0 .412-.423h-.006zM7.892 23.669l-.022-.001a.428.428 0 1 0 .428.428v-.011a.416.416 0 0 0-.406-.417h-.001zm7.929 0a.429.429 0 0 0-.002.852h.002a.429.429 0 0 0 .002-.852h-.002zm7.929 0h-.016a.428.428 0 1 0 .428.428v-.011a.418.418 0 0 0-.412-.418zm7.436.429v.005c0 .229.184.415.412.418v-.852a.423.423 0 0 0-.412.423v.006zM4.165 27.542l-.022-.001a.428.428 0 1 0 .428.428v-.006a.423.423 0 0 0-.406-.423h-.001zm7.93 0a.428.428 0 1 0 0 .856.428.428 0 1 0 0-.856zm7.929 0a.428.428 0 1 0 0 .856.428.428 0 1 0 0-.856zm7.93 0h-.016a.428.428 0 1 0 .428.428v-.006a.423.423 0 0 0-.412-.423h-.001zM7.892 31.577a.418.418 0 0 0-.412.418v.006h.819v-.006a.417.417 0 0 0-.406-.417h-.001zm7.929 0a.418.418 0 0 0-.412.418v.006h.819v-.006a.417.417 0 0 0-.406-.417h-.001zm7.929 0h-.016a.412.412 0 0 0-.412.412v.012V32h.819v-.001a.424.424 0 0 0-.389-.422h-.001zm-7.929-16.548l-.043-.001a1.036 1.036 0 1 0 1.036 1.037v-.022c0-.553-.442-1.002-.992-1.014h-.001zM30.601 32h.998v-1.036a1.02 1.02 0 0 0-.998 1.019V32v-.001z"/></symbol><symbol id="icon-Close" viewBox="0 0 32 32"><path d="M7.65 8.35l16 16 .7-.7-16-16z"/><path d="M23.65 7.65l-16 16 .7.7 16-16z"/></symbol><symbol id="icon-Download" viewBox="0 0 32 32"><path d="M21.29 10.92L17 15.21V6h-2v9.21l-4.29-4.29-1.42 1.41L16 19.04l6.71-6.71-1.42-1.41zM6 22h19v2H6v-2z"/></symbol><symbol id="icon-Logo_Checker" viewBox="0 0 110 32"><path d="M37.354 2.462zM2.462 28.738zM20.308 16L7.446 7.428l7.772 7.766-5.625 9.378 7.495-7.502 3.218 3.218 3.218-3.218 7.502 7.502-5.631-9.378 7.772-7.766L20.305 16zM3.262 2.462zm34.092 27.076zM62.671 8.209l-1.422 4.345h2.905l-1.409-4.345h-.074z"/><path d="M107.077 0H3.194A3.207 3.207 0 0 0 0 3.193v25.613A3.207 3.207 0 0 0 3.193 32h103.151a3.2 3.2 0 0 0 3.194-3.194V2.461a2.462 2.462 0 0 0-2.462-2.462zM84.271 6.769h6.308v1.409h-4.714v2.738h4.277v1.391h-4.277v2.88h4.714v1.428h-6.308zm-15.219 8.554h1.342V8.037h-1.342V6.769h4.308v1.298H72v7.225h1.354v1.323h-4.308zM38.154 3.262v25.477a.8.8 0 0 1-.8.8H3.262a.8.8 0 0 1-.8-.8V3.262a.8.8 0 0 1 .8-.8h34.092a.8.8 0 0 1 .8.8zM56 16.615h-1.508V9.052h-.074l-.775 1.594-2.16 3.938-2.154-3.938-.775-1.594h-.074v7.563h-1.52V6.769h1.889l2.634 5.009h.086l2.64-5.009H56zm3.378 8.247a1.87 1.87 0 0 1-.982.276 1.876 1.876 0 0 1-1.368-.589l-.001-.001a2.579 2.579 0 0 1-.498-1.725v-.04c0-.333.045-.656.129-.962l-.006.025c.079-.279.208-.522.378-.73l-.003.003c.166-.19.371-.34.605-.439l.011-.004c.223-.094.483-.148.755-.148h.034-.002l.053-.001c.339 0 .657.094.928.258l-.008-.005c.271.186.482.441.611.74l.004.011-.615.332a1.093 1.093 0 0 0-.349-.509l-.002-.002a1.13 1.13 0 0 0-1.439.166 1.46 1.46 0 0 0-.295.976v-.004.677a1.467 1.467 0 0 0 .298.982l-.003-.004a1.117 1.117 0 0 0 1.468.139l-.003.002a1.24 1.24 0 0 0 .367-.521l.003-.009.615.351a1.775 1.775 0 0 1-.675.746l-.008.004zm5.871.196h-.72V23.12h-2.018v1.938h-.72v-4.455h.72v1.877h2.018v-1.877h.702zm.191-8.443l-.892-2.665h-3.692l-.849 2.665h-1.625l3.36-9.846h2.006l3.329 9.846zm4.782 4.659h-2.135v1.231h1.938v.615h-1.938v1.298h2.135v.615h-2.855v-4.431h2.855zm4.603 3.618a1.87 1.87 0 0 1-.982.276 1.876 1.876 0 0 1-1.368-.589l-.001-.001a2.577 2.577 0 0 1-.473-1.758l-.001.01v-.048c0-.333.045-.656.129-.962l-.006.025c.079-.279.208-.522.378-.73l-.003.003a1.63 1.63 0 0 1 .605-.439l.011-.004c.22-.094.476-.148.744-.148h.039-.002l.053-.001c.339 0 .657.094.928.258l-.008-.005c.271.186.482.441.611.74l.004.011-.615.332a1.093 1.093 0 0 0-.349-.509l-.002-.002a1.13 1.13 0 0 0-1.439.166 1.46 1.46 0 0 0-.295.976v-.004.677a1.467 1.467 0 0 0 .298.982l-.003-.004c.185.216.458.352.763.352l.052-.001h-.002a.983.983 0 0 0 .654-.211l-.002.002a1.24 1.24 0 0 0 .367-.521l.003-.009.615.351a1.773 1.773 0 0 1-.693.746l-.008.005zm5.101.197l-1.354-2.08-.615.702v1.378h-.72v-4.486h.72v2.258l.615-.806 1.231-1.452h.843l-1.588 1.877 1.717 2.578zm1.846-8.474h-5.6V6.769h1.594v8.406h4.006zm3.533 4.659h-2.129v1.231h1.932v.615h-1.932v1.298h2.129v.615h-2.843v-4.431h2.855zm4.449 3.815l-.892-1.797H88v1.797h-.72v-4.486h1.92l.067-.002c.342 0 .652.14.875.365.215.266.345.607.345.98 0 .292-.08.566-.22.8l.004-.007a1.175 1.175 0 0 1-.644.441l-.008.002.966 1.846zm9.261-8.474L97.04 12.64h-1.963v3.975h-1.594V6.769h4.246a2.739 2.739 0 0 1 2.092.8 2.992 2.992 0 0 1 .756 2.174v-.008l.002.116c0 .609-.182 1.176-.495 1.649l.007-.011a2.528 2.528 0 0 1-1.41.975l-.018.004 2.129 4.148z"/><path d="M89.723 21.797l.001-.036a.534.534 0 0 0-.155-.377.609.609 0 0 0-.394-.142l-.033.001h.001-1.145v1.409h1.151a.566.566 0 0 0 .425-.142l-.001.001a.522.522 0 0 0 .155-.372l-.002-.042v.002zm9.182-12.425l.002-.072c0-.324-.13-.618-.341-.833a1.342 1.342 0 0 0-.951-.32h.004-2.542v3.12h2.542a1.337 1.337 0 0 0 .949-.315l-.002.002c.21-.22.34-.52.34-.849l-.001-.058v.003z"/></symbol><symbol id="icon-Logo_Mailer" viewBox="0 0 123 32"><path d="M20.072 16L7.2 7.416l7.776 7.776-5.632 9.392 7.512-7.512 3.216 3.216 3.216-3.216 7.512 7.512-5.632-9.392 7.784-7.776L20.072 16zm48.68-2.336a10.02 10.02 0 0 1-.2-.68c-.072.24-.136.472-.2.68s-.128.4-.192.56l-1.264 3.448h3.312l-1.264-3.464zm40.736.664a1.48 1.48 0 0 0-.517-1.214l-.002-.002a2.505 2.505 0 0 0-1.609-.423l.009-.001h-1.232v3.456h1.25c.325 0 .638-.05.932-.142l-.022.006c.26-.084.485-.215.674-.385l-.002.001c.17-.153.304-.343.388-.558l.004-.01a1.93 1.93 0 0 0 .128-.697v-.032.002z"/><path d="M120 0H3.2A3.2 3.2 0 0 0 0 3.2v25.6A3.2 3.2 0 0 0 3.2 32H120a3.2 3.2 0 0 0 3.2-3.2V3.2A3.2 3.2 0 0 0 120 0zM3.2 29.6a.8.8 0 0 1-.8-.8V3.2a.8.8 0 0 1 .8-.8h34.4a.8.8 0 0 1 .8.8v25.6a.8.8 0 0 1-.8.8zm56.872-8H58.4v-7.592l-3.144 5.904a.918.918 0 0 1-.277.318l-.003.002a.732.732 0 0 1-.39.112h-.291a.73.73 0 0 1-.393-.114l.003.002a.81.81 0 0 1-.278-.315l-.002-.005-3.2-5.92c0 .16 0 .312.04.464s0 .288 0 .416V21.6h-1.664V11.2h1.856l.136.096.128.168 3.104 5.784c.075.13.153.288.221.451l.011.029c.072.168.136.328.2.496l.216-.504c.072-.168.144-.336.224-.488l3.088-5.768.112-.168.136-.096h1.848zm12.064 0l-.034.001a.626.626 0 0 1-.384-.13l.001.001a.693.693 0 0 1-.23-.307l-.002-.005-.8-2.12h-4.288l-.8 2.12a.674.674 0 0 1-.222.303l-.002.001a.645.645 0 0 1-.398.136h-.019.001-1.488l4.088-10.4h1.984l4.056 10.4zm7.064 0h-1.952V11.2H79.2zm10.744 0H83.84V11.2h1.936V20h4.168zm10.216-8.872h-4.616v2.888H99.2v1.488h-3.632v2.952h4.616V21.6H93.6V11.2h6.568zm10.4 8.872l-.036.001a.797.797 0 0 1-.4-.107l.004.002a.81.81 0 0 1-.294-.284l-.002-.004-2.192-3.328a.733.733 0 0 0-.269-.27l-.004-.002a.973.973 0 0 0-.376-.074l-.058.002h.003-.8V21.6h-1.944V11.2h3.2l.131-.001a6.7 6.7 0 0 1 1.74.228l-.047-.011a3.39 3.39 0 0 1 1.255.621l-.007-.005c.308.248.55.565.706.928l.006.016c.147.354.232.765.232 1.196v.021-.001a3.11 3.11 0 0 1-.215 1.029l.007-.021a2.857 2.857 0 0 1-.445.855l.005-.007a3.097 3.097 0 0 1-.717.665l-.011.007a3.755 3.755 0 0 1-.949.457l-.027.007c.26.148.475.347.636.585l.004.007 2.624 3.824z"/></symbol><symbol id="icon-Mail" viewBox="0 0 32 32"><path d="M3.48 7h23.78c0 .23-.21.31-.35.42l-10.74 8.85c-.57.47-1 .5-1.47.08Q9.15 11.78 3.59 7.21a.572.572 0 0 0-.217-.07H3.37z"/><path d="M3.52 22.79c2.85-2.31 5.7-4.61 8.53-6.93.19-.15.31-.16.49 0 .494.472 1.029.913 1.596 1.311l.044.029c1.18.73 1.37.81 2.43 0 .25-.19.48-.4.73-.6 1.08-.9 1.08-.9 2.18 0l7.67 6.2v.28H3.54zM3.33 8.27l2.53 2.09 5.3 4.37c.24.19.35.31 0 .56-2.57 2.05-5.12 4.12-7.68 6.18a.481.481 0 0 1-.187.079H3.29zm23.58 12.95l-7.42-5.92c-.2-.16-.25-.26 0-.44l7.33-6h.06c.34 0 .32.28.32.52v11.35c-.02.21.02.45-.29.49z"/><path d="M26.91 21.22c.31 0 .27-.28.27-.49V9.35c0-.24 0-.49-.32-.52a.692.692 0 0 1 .465-.349l.005-.001v13c-.21.01-.33-.15-.42-.26zM3.52 22.79v.29c-.08 0-.18 0-.19-.08s.11-.16.19-.21zm23.66.29v-.28c.13.1.26.2 0 .28z"/></symbol><symbol id="icon-Pause" viewBox="0 0 32 32"><path d="M11 9h3v15h-3V9zm7 0h3v15h-3V9z"/></symbol><symbol id="icon-Play" viewBox="0 0 32 32"><path d="M9.92 5.37c-1.1-.64-2-.12-2 1.15v19.16c0 1.27.9 1.79 2 1.16l16.6-9.58a1.22 1.22 0 1 0 .008-2.307l-.009-.003z"/></symbol><symbol id="icon-Progress_Texture" viewBox="0 0 26 32"><path d="M12.8 0H0l25.6 25.6V12.8L12.8 0zM0 12.8v12.8L6.4 32h12.8L0 12.8z"/></symbol><symbol id="icon-SelectBox" viewBox="0 0 32 32"><path d="M21.888 11.2H8.88l6.512 10.112L21.888 11.2z"/></symbol><symbol id="icon-Stop" viewBox="0 0 32 32"><path d="M22 11v11H11V11h11zm2-2H9v15h15z"/></symbol><symbol id="icon-Tel" viewBox="0 0 32 32"><path d="M16.78 21.71l-2.73 2.67a1.448 1.448 0 0 1-1.061.462l-.072-.002h.003-.007a.59.59 0 0 1-.572-.446l-.001-.004C11.65 22.24 11 20.1 10.26 18a.509.509 0 0 0-.377-.379l-.003-.001L5 16.05a3.102 3.102 0 0 1-.733-.338l.013.008a.511.511 0 0 1-.081-.859l.001-.001c.284-.247.615-.45.977-.592l.023-.008c2-.79 4-1.55 6-2.32l15.18-5.89a1.09 1.09 0 0 1 1.618 1.207L28 7.249a16.926 16.926 0 0 1-.406 2.118l.026-.118q-1.62 7.75-3.32 15.61c-.26 1.23-1.13 1.56-2.15.8L17 21.889zM13 23.29v-.15c.11-1.18.22-2.36.32-3.54a.87.87 0 0 1 .309-.629l.001-.001c1.57-1.4 3.13-2.82 4.69-4.23L23.56 10c.093-.111.167-.24.217-.381l.003-.009a1.556 1.556 0 0 0-.404-.052l-.08.002h.004a2.207 2.207 0 0 0-.577.294l.007-.005-11.46 7.26a.34.34 0 0 0-.179.481l-.001-.002c.28.81.54 1.63.81 2.45.35 1.08.7 2.17 1.1 3.25z"/></symbol></defs></svg>